<svg width="502" height="242" viewBox="0 0 502 242" fill="none" xmlns="http://www.w3.org/2000/svg">
<g filter="url(#filter0_i_17_16)">
<path d="M70.8609 31.6C66.4609 31.6 62.7276 30.1333 59.6609 27.2C56.5943 24.1333 55.0609 20.4 55.0609 16C55.0609 11.4667 56.5943 7.66666 59.6609 4.6C62.7276 1.53333 66.4609 -3.8147e-06 70.8609 -3.8147e-06C75.2609 -3.8147e-06 78.9943 1.53333 82.0609 4.6C85.2609 7.66666 86.8609 11.4667 86.8609 16C86.8609 20.4 85.2609 24.1333 82.0609 27.2C78.9943 30.1333 75.2609 31.6 70.8609 31.6ZM47.2609 60.2C38.3276 63.8 31.3943 69.3333 26.4609 76.8C21.6609 84.1333 19.2609 93.1333 19.2609 103.8C19.2609 108.733 19.7276 112.2 20.6609 114.2C21.5943 116.067 22.0609 117.133 22.0609 117.4C14.8609 117.4 9.46094 115.933 5.86094 113C2.39427 109.933 0.660938 104.933 0.660938 98C0.660938 89.4667 4.1276 81.2 11.0609 73.2C18.1276 65.0667 27.1276 58.5333 38.0609 53.6C48.9943 48.5333 59.9276 46 70.8609 46C72.7276 46 75.3943 46.1333 78.8609 46.4L47.0609 196H18.2609L47.2609 60.2ZM177.661 85.6C180.194 83.7333 182.194 81.2667 183.661 78.2C185.128 75.1333 185.861 71.9333 185.861 68.6C185.861 64.3333 184.594 60.9333 182.061 58.4C179.528 55.8667 176.061 54.6 171.661 54.6C166.328 54.6 161.928 56.5333 158.461 60.4C155.128 64.1333 153.461 68.9333 153.461 74.8C153.461 80.1333 154.994 85.1333 158.061 89.8C161.128 94.3333 165.928 100.2 172.461 107.4C177.794 113.133 182.061 118.067 185.261 122.2C188.594 126.333 191.394 131.133 193.661 136.6C196.061 141.933 197.261 147.733 197.261 154C197.261 162.133 195.128 169.533 190.861 176.2C186.594 182.867 180.728 188.267 173.261 192.4C165.794 196.533 157.461 198.867 148.261 199.4L144.261 209.2C148.794 207.867 152.328 207.2 154.861 207.2C159.261 207.2 162.728 208.4 165.261 210.8C167.928 213.2 169.261 216.4 169.261 220.4C169.261 224.133 168.061 227.6 165.661 230.8C163.261 234 159.994 236.533 155.861 238.4C151.861 240.267 147.528 241.2 142.861 241.2C138.861 241.2 135.061 240.4 131.461 238.8C127.994 237.2 125.128 234.933 122.861 232L126.261 226.6C128.128 228.467 130.328 229.933 132.861 231C135.528 232.067 138.128 232.6 140.661 232.6C143.594 232.6 145.994 231.8 147.861 230.2C149.728 228.733 150.661 226.8 150.661 224.4C150.661 222.267 149.861 220.533 148.261 219.2C146.794 218 144.794 217.4 142.261 217.4C138.928 217.4 135.661 218.2 132.461 219.8L131.661 219L139.461 199.4C127.861 198.733 118.594 195.267 111.661 189C104.728 182.6 101.261 174.467 101.261 164.6C101.261 158.733 102.461 153.4 104.861 148.6C107.394 143.8 110.728 140 114.861 137.2C119.128 134.4 123.794 133 128.861 133C133.528 133 137.461 134.2 140.661 136.6C143.861 138.867 145.861 142.067 146.661 146.2C139.728 146.2 134.194 148.067 130.061 151.8C125.928 155.4 123.861 160.333 123.861 166.6C123.861 172.333 125.594 176.933 129.061 180.4C132.528 183.867 137.128 185.6 142.861 185.6C149.928 185.6 155.728 183.267 160.261 178.6C164.928 173.8 167.261 167.8 167.261 160.6C167.261 154.333 165.528 148.4 162.061 142.8C158.594 137.2 153.394 130.4 146.461 122.4C139.261 114.133 133.794 107.067 130.061 101.2C126.461 95.2 124.661 88.6667 124.661 81.6C124.661 74.6667 126.594 68.4667 130.461 63C134.328 57.4 139.661 53 146.461 49.8C153.261 46.6 160.928 45 169.461 45C180.261 45 188.861 47.5333 195.261 52.6C201.794 57.6667 205.061 64.4667 205.061 73C205.061 78.6 203.661 83.1333 200.861 86.6C198.061 90.0667 194.394 91.8 189.861 91.8C184.794 91.8 180.728 89.7333 177.661 85.6Z" fill="#45A6FF"/>
<path d="M243.373 196.9C238.573 196.9 234.673 195.4 231.673 192.4C228.773 189.4 227.323 184.9 227.323 178.9C227.323 176.4 227.723 173.15 228.523 169.15L244.573 94L266.773 91L249.523 172C249.123 173.5 248.923 175.1 248.923 176.8C248.923 178.8 249.373 180.25 250.273 181.15C251.273 181.95 252.873 182.35 255.073 182.35C257.973 182.35 260.673 181.15 263.173 178.75C265.673 176.25 267.473 173.05 268.573 169.15H274.873C271.173 179.95 266.423 187.3 260.623 191.2C254.823 195 249.073 196.9 243.373 196.9ZM286.514 196.9C280.814 196.9 276.064 194.95 272.264 191.05C268.464 187.15 266.564 181.05 266.564 172.75C266.564 165.35 268.014 157.6 270.914 149.5C273.914 141.3 278.314 134.4 284.114 128.8C290.014 123.1 297.014 120.25 305.114 120.25C309.214 120.25 312.264 120.95 314.264 122.35C316.264 123.75 317.264 125.6 317.264 127.9V128.95L318.914 121H340.514L329.714 172C329.314 173.5 329.114 175.1 329.114 176.8C329.114 181.1 331.164 183.25 335.264 183.25C338.064 183.25 340.464 181.95 342.464 179.35C344.564 176.75 346.214 173.35 347.414 169.15H353.714C350.014 179.95 345.414 187.3 339.914 191.2C334.514 195 329.064 196.9 323.564 196.9C319.364 196.9 315.964 195.75 313.364 193.45C310.864 191.05 309.364 187.6 308.864 183.1C305.964 187.2 302.714 190.55 299.114 193.15C295.614 195.65 291.414 196.9 286.514 196.9ZM296.264 182.35C298.764 182.35 301.214 181.2 303.614 178.9C306.114 176.5 307.814 173.25 308.714 169.15L315.914 135.25C315.914 133.95 315.414 132.7 314.414 131.5C313.414 130.2 311.864 129.55 309.764 129.55C305.764 129.55 302.164 131.9 298.964 136.6C295.764 141.2 293.264 146.8 291.464 153.4C289.664 159.9 288.764 165.65 288.764 170.65C288.764 175.65 289.464 178.85 290.864 180.25C292.364 181.65 294.164 182.35 296.264 182.35ZM401.619 196.9C395.519 196.9 391.019 195.3 388.119 192.1C385.319 188.8 383.919 184.75 383.919 179.95C383.919 177.85 384.169 175.5 384.669 172.9C385.169 170.2 385.669 167.6 386.169 165.1C386.769 162.6 387.169 161 387.369 160.3C388.169 156.8 388.919 153.35 389.619 149.95C390.319 146.55 390.669 143.8 390.669 141.7C390.669 136.6 388.869 134.05 385.269 134.05C382.669 134.05 380.369 135.35 378.369 137.95C376.369 140.45 374.769 143.75 373.569 147.85L363.369 196H341.769L357.669 121H379.269L377.619 128.8C382.619 123.2 388.469 120.4 395.169 120.4C400.269 120.4 404.319 121.8 407.319 124.6C410.319 127.4 411.819 131.65 411.819 137.35C411.819 140.25 411.469 143.5 410.769 147.1C410.069 150.6 409.069 154.9 407.769 160C406.969 163.1 406.219 166.15 405.519 169.15C404.919 172.05 404.619 174.35 404.619 176.05C404.619 178.05 405.069 179.6 405.969 180.7C406.869 181.8 408.419 182.35 410.619 182.35C413.619 182.35 416.019 181.3 417.819 179.2C419.619 177 421.419 173.65 423.219 169.15H429.519C425.819 180.15 421.519 187.55 416.619 191.35C411.819 195.05 406.819 196.9 401.619 196.9ZM441.201 196.9C435.501 196.9 430.751 194.95 426.951 191.05C423.151 187.15 421.251 181.05 421.251 172.75C421.251 165.35 422.701 157.6 425.601 149.5C428.601 141.3 433.001 134.4 438.801 128.8C444.701 123.1 451.701 120.25 459.801 120.25C463.901 120.25 466.951 120.95 468.951 122.35C470.951 123.75 471.951 125.6 471.951 127.9V128.5L479.301 94L501.501 91L484.251 172C483.851 173.5 483.651 174.95 483.651 176.35C483.651 180.35 485.701 182.35 489.801 182.35C491.601 182.35 493.201 182.05 494.601 181.45C494.201 186.45 492.401 190.3 489.201 193C486.101 195.6 482.401 196.9 478.101 196.9C474.101 196.9 470.701 195.9 467.901 193.9C465.201 191.8 463.401 188.65 462.501 184.45C456.501 192.75 449.401 196.9 441.201 196.9ZM450.951 182.35C453.151 182.35 455.351 181.4 457.551 179.5C459.851 177.6 461.551 174.95 462.651 171.55L463.251 169.15L470.601 134.8C469.701 131.3 467.651 129.55 464.451 129.55C460.451 129.55 456.851 131.9 453.651 136.6C450.451 141.2 447.951 146.8 446.151 153.4C444.351 159.9 443.451 165.65 443.451 170.65C443.451 175.65 444.151 178.85 445.551 180.25C447.051 181.65 448.851 182.35 450.951 182.35Z" fill="#40CB00"/>
</g>
<defs>
<filter id="filter0_i_17_16" x="0.660889" y="0" width="500.84" height="245.2" filterUnits="userSpaceOnUse" color-interpolation-filters="sRGB">
<feFlood flood-opacity="0" result="BackgroundImageFix"/>
<feBlend mode="normal" in="SourceGraphic" in2="BackgroundImageFix" result="shape"/>
<feColorMatrix in="SourceAlpha" type="matrix" values="0 0 0 0 0 0 0 0 0 0 0 0 0 0 0 0 0 0 127 0" result="hardAlpha"/>
<feOffset dy="4"/>
<feGaussianBlur stdDeviation="2"/>
<feComposite in2="hardAlpha" operator="arithmetic" k2="-1" k3="1"/>
<feColorMatrix type="matrix" values="0 0 0 0 0.192157 0 0 0 0 0.776471 0 0 0 0 0.831373 0 0 0 0.3 0"/>
<feBlend mode="normal" in2="shape" result="effect1_innerShadow_17_16"/>
</filter>
</defs>
</svg>
