<svg width="157" height="59" viewBox="0 0 157 59" fill="none" xmlns="http://www.w3.org/2000/svg">
<g filter="url(#filter0_i_250_397)">
<path d="M14.501 51.0022V29.6741H19.2471V38.1848L26.2783 29.6741H31.3174L19.2471 43.8245V51.0022H14.501ZM26.6738 51.0022L19.7451 40.7336L22.7041 37.262L32.2549 51.0022H26.6738ZM33.4854 51.0022V29.6741H38.2607V51.0022H33.4854ZM42.0693 51.0022V29.6741H47.0059L53.832 42.3303C53.9883 42.6331 54.125 42.9358 54.2422 43.2385C54.3691 43.5315 54.4814 43.8293 54.5791 44.1321H54.6816C54.6621 43.8098 54.6523 43.4924 54.6523 43.1799C54.6523 42.8577 54.6523 42.5305 54.6523 42.1985V29.6741H58.7246V51.0022H53.7734L46.9326 38.3752C46.7764 38.0823 46.6396 37.7844 46.5225 37.4817C46.4053 37.179 46.2979 36.8762 46.2002 36.5735H46.0977C46.1172 36.9055 46.127 37.2327 46.127 37.5549C46.1367 37.8772 46.1416 38.2043 46.1416 38.5364V51.0022H42.0693ZM61.874 40.968V39.7083C61.874 36.3 62.7236 33.7122 64.4229 31.9446C66.1221 30.177 68.3926 29.2932 71.2344 29.2932C73.8027 29.2932 75.8096 29.928 77.2549 31.1975C78.7002 32.4573 79.4277 34.0637 79.4375 36.0168V36.3977H74.7793V36.1487C74.7793 35.1917 74.4668 34.4055 73.8418 33.7903C73.2168 33.1653 72.2891 32.8528 71.0586 32.8528C69.7402 32.8528 68.6904 33.3557 67.9092 34.3616C67.1377 35.3577 66.752 36.8762 66.752 38.9172V41.7883C66.752 43.8391 67.1719 45.3723 68.0117 46.3879C68.8516 47.3938 70.0039 47.8967 71.4688 47.8967C72.2012 47.8967 72.8311 47.8137 73.3584 47.6477C73.8857 47.4719 74.3936 47.2034 74.8818 46.842V43.1213H71.1758V39.7375H79.4668V48.3948C78.8125 49.0979 77.8164 49.7717 76.4785 50.4163C75.1406 51.0608 73.4609 51.3831 71.4395 51.3831C68.4805 51.3831 66.1465 50.4993 64.4375 48.7317C62.7285 46.9641 61.874 44.3762 61.874 40.968ZM88.2559 44.3518V43.8098H92.7383V44.6008C92.7383 45.802 92.958 46.6565 93.3975 47.1643C93.8369 47.6721 94.4912 47.926 95.3604 47.926C96.2197 47.926 96.874 47.6575 97.3232 47.1204C97.7725 46.5735 97.9971 45.636 97.9971 44.3079V29.6741H102.743V43.8245C102.743 46.2463 102.113 48.1116 100.854 49.4202C99.5938 50.7288 97.8115 51.3831 95.5068 51.3831C93.2314 51.3831 91.4541 50.8069 90.1748 49.6545C88.8955 48.5022 88.2559 46.7346 88.2559 44.3518ZM105.79 40.968V39.7083C105.79 36.2219 106.649 33.6145 108.368 31.886C110.097 30.1575 112.323 29.2932 115.048 29.2932C117.763 29.2932 119.989 30.1575 121.728 31.886C123.466 33.6145 124.335 36.2219 124.335 39.7083V40.968C124.335 44.4543 123.466 47.0618 121.728 48.7903C119.989 50.5188 117.763 51.3831 115.048 51.3831C112.323 51.3831 110.097 50.5188 108.368 48.7903C106.649 47.0618 105.79 44.4543 105.79 40.968ZM110.683 41.7883C110.683 43.8977 111.073 45.4456 111.854 46.4319C112.636 47.4182 113.7 47.9114 115.048 47.9114C116.386 47.9114 117.45 47.4182 118.241 46.4319C119.042 45.4456 119.442 43.8977 119.442 41.7883V38.9026C119.442 36.7932 119.042 35.2502 118.241 34.2737C117.45 33.2874 116.386 32.7942 115.048 32.7942C113.7 32.7942 112.636 33.2874 111.854 34.2737C111.073 35.2502 110.683 36.7932 110.683 38.9026V41.7883ZM127.47 51.0022V29.6741H135.688C137.953 29.6741 139.691 30.1379 140.902 31.0657C142.123 31.9934 142.733 33.3801 142.733 35.2258C142.733 36.4172 142.47 37.3987 141.942 38.1702C141.415 38.9417 140.746 39.469 139.936 39.7522V39.8108C140.932 40.0842 141.757 40.6506 142.411 41.51C143.065 42.3596 143.393 43.5022 143.393 44.9377C143.393 46.8518 142.729 48.3411 141.4 49.4055C140.072 50.47 138.295 51.0022 136.068 51.0022H127.47ZM132.128 47.7356H135.526C136.591 47.7356 137.377 47.4573 137.885 46.9006C138.393 46.3342 138.646 45.5676 138.646 44.6008C138.646 43.6536 138.393 42.8967 137.885 42.3303C137.377 41.7542 136.591 41.4661 135.526 41.4661H132.128V47.7356ZM132.128 38.5803H135.16C136.205 38.5803 136.962 38.3362 137.431 37.8479C137.899 37.3499 138.134 36.6565 138.134 35.7678C138.134 34.8792 137.899 34.2004 137.431 33.7317C136.962 33.2532 136.205 33.0139 135.16 33.0139H132.128V38.5803Z" fill="#4356FF"/>
</g>
<path d="M96.7715 28.1184L136.674 25.3281L136.991 29.8588L97.0883 32.6491L96.7715 28.1184Z" fill="white"/>
<path d="M115.385 7.63495C117.107 7.51456 118.405 6.02126 118.285 4.29957C118.164 2.57789 116.671 1.27978 114.949 1.40018C113.228 1.52057 111.93 3.01387 112.05 4.73555C112.17 6.45724 113.664 7.75534 115.385 7.63495Z" fill="white"/>
<path d="M96.7715 28.1184L136.674 25.3281L136.991 29.8588L97.0883 32.6491L96.7715 28.1184Z" fill="#F1B31C"/>
<path d="M96.8701 2.65967C98.5918 2.53928 100.085 3.8374 100.205 5.55907C100.326 7.28074 99.0278 8.77405 97.3061 8.89444" fill="#FCEA2B"/>
<path d="M133.468 6.36566C131.747 6.48605 130.253 5.18794 130.133 3.46626C130.013 1.74459 131.311 0.251279 133.032 0.130888" fill="#FCEA2B"/>
<mask id="path-7-inside-1_250_397" fill="white">
<path d="M133.295 4.18159C133.691 9.84345 129.422 14.7543 123.76 15.1502L123.581 15.1627C117.919 15.5586 116.126 11.0717 115.73 5.40984L114.437 5.50025C114.833 11.1621 113.681 15.8549 108.019 16.2508L108.122 16.2437C104.81 16.4753 101.755 15.1107 99.7103 12.8048C98.2596 11.1687 97.3176 9.05873 97.1533 6.70884L96.8701 2.65967L98.6412 27.9878L134.803 25.4591L133.032 0.130996"/>
</mask>
<path d="M133.295 4.18159C133.691 9.84345 129.422 14.7543 123.76 15.1502L123.581 15.1627C117.919 15.5586 116.126 11.0717 115.73 5.40984L114.437 5.50025C114.833 11.1621 113.681 15.8549 108.019 16.2508L108.122 16.2437C104.81 16.4753 101.755 15.1107 99.7103 12.8048C98.2596 11.1687 97.3176 9.05873 97.1533 6.70884L96.8701 2.65967L98.6412 27.9878L134.803 25.4591L133.032 0.130996" fill="#FCEA2B"/>
<path d="M115.73 5.40984L116.727 5.34008L116.658 4.34252L115.66 4.41227L115.73 5.40984ZM114.437 5.50025L114.367 4.50269L113.37 4.57244L113.439 5.57001L114.437 5.50025ZM99.7103 12.8048L100.459 12.1413L100.459 12.1413L99.7103 12.8048ZM98.6412 27.9878L97.6437 28.0576L97.7134 29.0551L98.711 28.9854L98.6412 27.9878ZM134.803 25.4591L134.873 26.4567L135.87 26.387L135.8 25.3894L134.803 25.4591ZM132.297 4.25135C132.654 9.36227 128.801 13.7952 123.69 14.1526L123.83 16.1477C130.042 15.7133 134.727 10.3246 134.292 4.11183L132.297 4.25135ZM123.69 14.1526L123.511 14.1651L123.651 16.1602L123.83 16.1477L123.69 14.1526ZM123.511 14.1651C122.232 14.2545 121.234 14.0647 120.445 13.696C119.659 13.3287 119.024 12.7579 118.509 11.9971C117.455 10.4409 116.922 8.12194 116.727 5.34008L114.732 5.47959C114.934 8.35959 115.496 11.115 116.853 13.1187C117.543 14.1379 118.443 14.9684 119.598 15.508C120.75 16.0462 122.099 16.2688 123.651 16.1602L123.511 14.1651ZM115.66 4.41227L114.367 4.50269L114.507 6.49781L115.8 6.4074L115.66 4.41227ZM113.439 5.57001C113.634 8.35187 113.429 10.7224 112.602 12.4102C112.198 13.2352 111.649 13.8889 110.921 14.362C110.191 14.8369 109.229 15.1638 107.95 15.2533L108.089 17.2484C109.641 17.1399 110.946 16.7317 112.012 16.0385C113.08 15.3434 113.856 14.3958 114.398 13.2904C115.463 11.1173 115.636 8.31049 115.434 5.43049L113.439 5.57001ZM108.089 17.2484L108.192 17.2412L108.052 15.2461L107.95 15.2533L108.089 17.2484ZM108.052 15.2461C105.063 15.4551 102.306 14.2249 100.459 12.1413L98.9621 13.4682C101.204 15.9965 104.557 17.4954 108.192 17.2412L108.052 15.2461ZM100.459 12.1413C99.149 10.6644 98.2992 8.76139 98.1508 6.63909L96.1557 6.7786C96.3359 9.35606 97.3702 11.6729 98.9621 13.4682L100.459 12.1413ZM98.1508 6.63909L97.8677 2.58991L95.8726 2.72942L96.1557 6.7786L98.1508 6.63909ZM95.8726 2.72942L97.6437 28.0576L99.6388 27.9181L97.8677 2.58991L95.8726 2.72942ZM98.711 28.9854L134.873 26.4567L134.733 24.4616L98.5715 26.9903L98.711 28.9854ZM135.8 25.3894L134.029 0.0612394L132.034 0.200752L133.805 25.5289L135.8 25.3894Z" fill="#4356FF" mask="url(#path-7-inside-1_250_397)"/>
<path d="M115.385 7.63495C117.107 7.51456 118.405 6.02126 118.285 4.29957C118.164 2.57789 116.671 1.27978 114.949 1.40018C113.228 1.52057 111.93 3.01387 112.05 4.73555C112.17 6.45724 113.664 7.75534 115.385 7.63495Z" fill="#FCEA2B"/>
<defs>
<filter id="filter0_i_250_397" x="14.501" y="29.2932" width="128.892" height="26.0898" filterUnits="userSpaceOnUse" color-interpolation-filters="sRGB">
<feFlood flood-opacity="0" result="BackgroundImageFix"/>
<feBlend mode="normal" in="SourceGraphic" in2="BackgroundImageFix" result="shape"/>
<feColorMatrix in="SourceAlpha" type="matrix" values="0 0 0 0 0 0 0 0 0 0 0 0 0 0 0 0 0 0 127 0" result="hardAlpha"/>
<feOffset dy="4"/>
<feGaussianBlur stdDeviation="2"/>
<feComposite in2="hardAlpha" operator="arithmetic" k2="-1" k3="1"/>
<feColorMatrix type="matrix" values="0 0 0 0 0.192157 0 0 0 0 0.776471 0 0 0 0 0.831373 0 0 0 0.3 0"/>
<feBlend mode="normal" in2="shape" result="effect1_innerShadow_250_397"/>
</filter>
</defs>
</svg>
